<?xml version="1.0" encoding="UTF-8"?>
<svg version="1.1" xmlns="http://www.w3.org/2000/svg" width="500" height="500">
<path d="M0 0 C165 0 330 0 500 0 C500 165 500 330 500 500 C335 500 170 500 0 500 C0 335 0 170 0 0 Z " fill="#FCF4F2" transform="translate(0,0)"/>
<path d="M0 0 C3.96 0 7.92 0 12 0 C12 25.41 12 50.82 12 77 C22.6425 76.896875 33.285 76.79375 44.25 76.6875 C47.56579102 76.66260498 50.88158203 76.63770996 54.29785156 76.61206055 C90.97533076 76.90913725 90.97533076 76.90913725 123 61 C132.11714291 49.86998138 133.22325208 36.90574296 132 23 C130.53763141 16.08090746 127.35072911 10.49102075 123.26953125 4.77734375 C122 3 122 3 121 1 C123.58585205 0.83763255 126.16151954 0.71904514 128.75 0.625 C129.84441406 0.54958984 129.84441406 0.54958984 130.9609375 0.47265625 C133.109375 0.4140625 133.109375 0.4140625 137 1 C146.07415225 11.22334587 145.86042955 25.81790538 145.18457031 38.67138672 C144.80867766 43.41379956 143.81155449 47.61413123 142 52 C141.50693359 53.24910156 141.50693359 53.24910156 141.00390625 54.5234375 C134.55215675 69.03429278 122.33298635 77.35424808 108 83 C89.77720435 89.56656851 70.94408485 90.16982273 51.7578125 90.09765625 C50.42179405 90.09618027 49.08577501 90.09516362 47.74975586 90.09460449 C42.87482824 90.08942763 37.99991312 90.07546703 33.125 90.0625 C22.19375 90.041875 11.2625 90.02125 0 90 C0 60.3 0 30.6 0 0 Z " fill="#070707" transform="translate(91,269)"/>
<path d="M0 0 C17.1703125 -0.0928125 17.1703125 -0.0928125 34.6875 -0.1875 C38.25522217 -0.21481201 41.82294434 -0.24212402 45.4987793 -0.27026367 C73.63506198 -0.39640543 104.18531642 -0.49631652 126.19140625 20 C135.62687287 30.43403652 139.75760545 42.41177257 139.5625 56.3125 C139.55299316 57.4068335 139.54348633 58.50116699 139.53369141 59.62866211 C139.3115554 68.28875623 138.06726097 75.24815047 134 83 C133.43539062 84.29357422 133.43539062 84.29357422 132.859375 85.61328125 C131.43923914 88.21536563 130.55536226 89.47233778 128 91 C122.90561428 91.65285195 118.10196048 91.46735516 113 91 C113.37511719 90.5875 113.75023437 90.175 114.13671875 89.75 C123.60911731 79.0607442 127.69441233 69.29583814 127.34375 54.81640625 C126.34431797 43.72043925 122.58072626 34.5303411 113.96875 27.29296875 C96.93987566 15.10745179 75.82217233 12.96668238 55.5546875 12.68359375 C54.44424072 12.66494263 53.33379395 12.6462915 52.18969727 12.6270752 C48.08487065 12.55933925 43.97992726 12.4988343 39.875 12.4375 C30.67625 12.293125 21.4775 12.14875 12 12 C12 38.4 12 64.8 12 92 C8.04 92 4.08 92 0 92 C0 61.64 0 31.28 0 0 Z " fill="#060606" transform="translate(91,139)"/>
<path d="M0 0 C0.66515625 0.58136719 1.3303125 1.16273438 2.015625 1.76171875 C2.61890625 2.27089844 3.2221875 2.78007812 3.84375 3.3046875 C13.29753992 11.92807695 20.18392804 24.76749357 21.25 37.578125 C21.26291166 39.64076255 21.15514729 41.70376494 21.015625 43.76171875 C16.725625 43.76171875 12.435625 43.76171875 8.015625 43.76171875 C7.78488281 42.71113281 7.55414063 41.66054687 7.31640625 40.578125 C3.97424432 25.93544166 -1.57998385 13.76814687 -14.859375 5.38671875 C-31.70846363 -3.84637316 -52.32330449 -6.22869165 -70.984375 -1.67578125 C-86.03972615 3.07155109 -98.90720556 10.31047545 -106.828125 24.40234375 C-107.2096875 25.1809375 -107.59125 25.95953125 -107.984375 26.76171875 C-108.35820312 27.48488281 -108.73203125 28.20804688 -109.1171875 28.953125 C-111.89068948 37.93577332 -111.56002434 51.40613212 -107.2890625 59.80078125 C-101.95077051 67.82420215 -94.43905168 71.57887871 -85.984375 75.76171875 C-85.984375 76.09171875 -85.984375 76.42171875 -85.984375 76.76171875 C-90.00421783 76.99540441 -94.02230587 77.13657945 -98.046875 77.26171875 C-99.18060547 77.32875 -100.31433594 77.39578125 -101.48242188 77.46484375 C-109.72284781 77.65704027 -109.72284781 77.65704027 -113.23413086 75.16503906 C-115.0729199 73.12686326 -116.54704518 71.09754561 -117.984375 68.76171875 C-118.64308594 67.7253125 -119.30179687 66.68890625 -119.98046875 65.62109375 C-125.79029821 53.0882367 -125.82696197 38.97891955 -121.984375 25.76171875 C-116.0029282 10.04952177 -105.06009645 -1.805217 -89.984375 -9.23828125 C-61.67527183 -21.67324089 -24.43903243 -20.26329847 0 0 Z " fill="#040404" transform="translate(394.984375,153.23828125)"/>
<path d="M0 0 C5.94 0 11.88 0 18 0 C26.93558378 15.23110872 30.1846513 29.59213437 27.52734375 47.1171875 C26.87589446 49.55914713 26.06622117 51.71004771 25 54 C24.39671875 55.32837891 24.39671875 55.32837891 23.78125 56.68359375 C16.02385911 72.21992384 3.18672117 81.55061166 -12.96142578 87.33447266 C-37.7271313 95.41965987 -66.57948439 94.5409322 -90.27734375 83.46875 C-106.97620211 74.89524046 -119.44752895 62.86565831 -126.1015625 45.05078125 C-127.18900259 41.56995665 -128 38.65925404 -128 35 C-123.38 35 -118.76 35 -114 35 C-113.608125 36.27875 -113.21625 37.5575 -112.8125 38.875 C-107.82660844 53.55695718 -99.68625139 63.51470415 -86 71 C-85.30648437 71.38800781 -84.61296875 71.77601563 -83.8984375 72.17578125 C-62.76404131 82.74297934 -37.40498282 80.83724624 -15.5390625 73.90234375 C-4.31310646 69.64571517 5.4066801 62.83705731 11 52 C13.58081531 45.8542687 14.52379229 40.2667885 14.4375 33.625 C14.42505249 32.37891968 14.42505249 32.37891968 14.41235352 31.10766602 C14.06824078 18.55673549 8.8359481 8.8359481 0 0 Z " fill="#050505" transform="translate(392,270)"/>
<path d="M0 0 C3.55484581 0.68071515 4.714546 1.76322459 6.9375 4.5625 C8.46964888 7.62679776 8.16688548 10.1790642 7.9375 13.5625 C5.7375 18.1625 5.7375 18.1625 2.9375 19.5625 C-3.40367647 20.02367647 -3.40367647 20.02367647 -5.9375 18.25 C-8.49431756 14.41477366 -8.82566822 10.02009621 -8.0625 5.5625 C-5.59698014 2.08176607 -4.21356301 0.77391974 0 0 Z " fill="#F7EFED" transform="translate(414.0625,237.4375)"/>
<path d="M0 0 C4.11224846 0.94239027 5.56584727 2.25104909 8 5.6875 C8.88259605 9.81738341 8.41054235 12.84856562 6.5625 16.625 C5 18.6875 5 18.6875 4 19.6875 C-3.30434783 20.15874825 -3.30434783 20.15874825 -5.9375 18.375 C-8.33801725 14.56241377 -8.44618891 11.0750243 -8 6.6875 C-6.15197251 3.03923884 -4.08802893 0.93683996 0 0 Z " fill="#F4ECEA" transform="translate(391,237.3125)"/>
<path d="M0 0 C9 0 9 0 11.5625 1.5 C12.036875 1.995 12.51125 2.49 13 3 C12.814375 4.134375 12.62875 5.26875 12.4375 6.4375 C12.2209375 8.2009375 12.2209375 8.2009375 12 10 C12.33 10.33 12.66 10.66 13 11 C13.25 13.9375 13.25 13.9375 13 17 C8.61501596 19.92332269 5.2225328 19.1356502 0 19 C0 12.73 0 6.46 0 0 Z " fill="#555251" transform="translate(79,238)"/>
<path d="M0 0 C0.99 0.33 1.98 0.66 3 1 C4.39044898 4.87862084 5 7.86462003 5 12 C5.66 12 6.32 12 7 12 C7.66 8.37 8.32 4.74 9 1 C10.32 0.67 11.64 0.34 13 0 C13.99 3.63 14.98 7.26 16 11 C17.32 7.37 18.64 3.74 20 0 C20.66 0 21.32 0 22 0 C21.31195504 6.19240462 19.71951285 12.01955594 18 18 C17.01 18 16.02 18 15 18 C14.79503906 17.28972656 14.59007812 16.57945312 14.37890625 15.84765625 C14.10949219 14.92855469 13.84007812 14.00945312 13.5625 13.0625 C13.29566406 12.14597656 13.02882812 11.22945312 12.75390625 10.28515625 C12.20973949 8.0597507 12.20973949 8.0597507 11 7 C9.68 10.63 8.36 14.26 7 18 C6.34 18 5.68 18 5 18 C2.67344909 12.01589463 0.57065878 6.41991126 0 0 Z " fill="#171616" transform="translate(131,239)"/>
<path d="M0 0 C8.3984375 -0.1953125 8.3984375 -0.1953125 11 0 C13 2 13 2 13.25 4.5 C13 7 13 7 11 9 C11.33916995 12.18819752 11.98593683 14.95781049 13 18 C12.01 18 11.02 18 10 18 C9.608125 16.865625 9.21625 15.73125 8.8125 14.5625 C7.41389118 10.79660949 7.41389118 10.79660949 4.3125 10.0625 C3.549375 10.041875 2.78625 10.02125 2 10 C2 12.64 2 15.28 2 18 C1.34 18 0.68 18 0 18 C0 12.06 0 6.12 0 0 Z " fill="#030303" transform="translate(183,239)"/>
<path d="M0 0 C0.99 0 1.98 0 3 0 C4.00605593 2.60197202 5.00502525 5.20629362 6 7.8125 C6.28617187 8.55048828 6.57234375 9.28847656 6.8671875 10.04882812 C7.13789063 10.76103516 7.40859375 11.47324219 7.6875 12.20703125 C8.06455078 13.18893433 8.06455078 13.18893433 8.44921875 14.19067383 C9 16 9 16 9 19 C8.34 19 7.68 19 7 19 C6.34 17.35 5.68 15.7 5 14 C2.36 14 -0.28 14 -3 14 C-3.33 15.65 -3.66 17.3 -4 19 C-4.66 19 -5.32 19 -6 19 C-5.39124245 14.39583374 -4.15277044 10.43516676 -2.4375 6.125 C-1.75494141 4.39636719 -1.75494141 4.39636719 -1.05859375 2.6328125 C-0.70925781 1.76398438 -0.35992187 0.89515625 0 0 Z " fill="#31302F" transform="translate(344,238)"/>
<path d="M0 0 C0.99 0 1.98 0 3 0 C4.00605593 2.60197202 5.00502525 5.20629362 6 7.8125 C6.28617187 8.55048828 6.57234375 9.28847656 6.8671875 10.04882812 C7.13789063 10.76103516 7.40859375 11.47324219 7.6875 12.20703125 C8.06455078 13.18893433 8.06455078 13.18893433 8.44921875 14.19067383 C9 16 9 16 9 19 C8.34 19 7.68 19 7 19 C6.34 17.35 5.68 15.7 5 14 C2.36 14 -0.28 14 -3 14 C-3.33 15.65 -3.66 17.3 -4 19 C-4.66 19 -5.32 19 -6 19 C-5.39124245 14.39583374 -4.15277044 10.43516676 -2.4375 6.125 C-1.75494141 4.39636719 -1.75494141 4.39636719 -1.05859375 2.6328125 C-0.70925781 1.76398438 -0.35992187 0.89515625 0 0 Z " fill="#31302F" transform="translate(268,238)"/>
<path d="M0 0 C0.99 0 1.98 0 3 0 C4.00605593 2.60197202 5.00502525 5.20629362 6 7.8125 C6.28617188 8.55048828 6.57234375 9.28847656 6.8671875 10.04882812 C7.13789063 10.76103516 7.40859375 11.47324219 7.6875 12.20703125 C8.06455078 13.18893433 8.06455078 13.18893433 8.44921875 14.19067383 C9 16 9 16 9 19 C8.34 19 7.68 19 7 19 C6.34 17.35 5.68 15.7 5 14 C2.36 14 -0.28 14 -3 14 C-3.33 15.65 -3.66 17.3 -4 19 C-4.66 19 -5.32 19 -6 19 C-5.39124245 14.39583374 -4.15277044 10.43516676 -2.4375 6.125 C-1.75494141 4.39636719 -1.75494141 4.39636719 -1.05859375 2.6328125 C-0.70925781 1.76398438 -0.35992187 0.89515625 0 0 Z " fill="#31302F" transform="translate(209,238)"/>
<path d="M0 0 C0.99 0 1.98 0 3 0 C4.00605593 2.60197202 5.00502525 5.20629362 6 7.8125 C6.28617188 8.55048828 6.57234375 9.28847656 6.8671875 10.04882812 C7.13789063 10.76103516 7.40859375 11.47324219 7.6875 12.20703125 C8.06455078 13.18893433 8.06455078 13.18893433 8.44921875 14.19067383 C9 16 9 16 9 19 C8.34 19 7.68 19 7 19 C6.34 17.35 5.68 15.7 5 14 C2.36 14 -0.28 14 -3 14 C-3.33 15.65 -3.66 17.3 -4 19 C-4.66 19 -5.32 19 -6 19 C-5.39124245 14.39583374 -4.15277044 10.43516676 -2.4375 6.125 C-1.75494141 4.39636719 -1.75494141 4.39636719 -1.05859375 2.6328125 C-0.70925781 1.76398438 -0.35992187 0.89515625 0 0 Z " fill="#31302F" transform="translate(166,238)"/>
<path d="M0 0 C3.55484581 0.68071515 4.714546 1.76322459 6.9375 4.5625 C8.46964888 7.62679776 8.16688548 10.1790642 7.9375 13.5625 C5.7375 18.1625 5.7375 18.1625 2.9375 19.5625 C-3.40367647 20.02367647 -3.40367647 20.02367647 -5.9375 18.25 C-8.49431756 14.41477366 -8.82566822 10.02009621 -8.0625 5.5625 C-5.59698014 2.08176607 -4.21356301 0.77391974 0 0 Z M-5.0625 5.5625 C-5.38149515 7.93205386 -5.38149515 7.93205386 -5.3125 10.5625 C-5.31765625 11.449375 -5.3228125 12.33625 -5.328125 13.25 C-5.28302862 15.75650239 -5.28302862 15.75650239 -3.0625 17.5625 C-0.0625 17.97916667 -0.0625 17.97916667 2.9375 17.5625 C5.02690868 14.42838698 5.21114412 13.58799528 5.1875 10 C5.19265625 9.21496094 5.1978125 8.42992187 5.203125 7.62109375 C5.12179262 5.33959032 5.12179262 5.33959032 2.9375 3.5625 C-1.56730277 3.0520042 -1.56730277 3.0520042 -5.0625 5.5625 Z " fill="#242323" transform="translate(414.0625,237.4375)"/>
<path d="M0 0 C4.11224846 0.94239027 5.56584727 2.25104909 8 5.6875 C8.88259605 9.81738341 8.41054235 12.84856562 6.5625 16.625 C5 18.6875 5 18.6875 4 19.6875 C-3.30434783 20.15874825 -3.30434783 20.15874825 -5.9375 18.375 C-8.33801725 14.56241377 -8.44618891 11.0750243 -8 6.6875 C-6.15197251 3.03923884 -4.08802893 0.93683996 0 0 Z M-3.73046875 3.90625 C-5.33094188 6.15183692 -5.37178422 7.45130528 -5.3125 10.1875 C-5.30863281 10.9609375 -5.30476563 11.734375 -5.30078125 12.53125 C-5.11825461 14.98074946 -5.11825461 14.98074946 -3 17.6875 C0 18.10416667 0 18.10416667 3 17.6875 C5.51012963 15.17737037 5.29721609 14.21944763 5.3125 10.75 C5.32925781 9.87472656 5.34601563 8.99945313 5.36328125 8.09765625 C5.17766764 5.65524252 5.17766764 5.65524252 3.73046875 3.87109375 C1.08750075 2.06337523 -1.11214363 2.06219258 -3.73046875 3.90625 Z " fill="#252323" transform="translate(391,237.3125)"/>
<path d="M0 0 C2 2 2 2 2 5 C1.01 5 0.02 5 -1 5 C-1 4.01 -1 3.02 -1 2 C-3.31 2.33 -5.62 2.66 -8 3 C-8.33 3.99 -8.66 4.98 -9 6 C-8.37351562 6.12117187 -7.74703125 6.24234375 -7.1015625 6.3671875 C-6.28429687 6.53476563 -5.46703125 6.70234375 -4.625 6.875 C-3.81289062 7.03742188 -3.00078125 7.19984375 -2.1640625 7.3671875 C0 8 0 8 2 10 C2.3125 13 2.3125 13 2 16 C-1.71013399 18.47342266 -3.61060262 18.38503486 -8 18 C-10.4375 16.625 -10.4375 16.625 -12 15 C-12 14.34 -12 13.68 -12 13 C-11.01 13 -10.02 13 -9 13 C-8.67 13.66 -8.34 14.32 -8 15 C-5.69 15 -3.38 15 -1 15 C-1.33 13.68 -1.66 12.36 -2 11 C-3.11375 10.71125 -4.2275 10.4225 -5.375 10.125 C-9 9 -9 9 -11 7 C-11.375 4.5625 -11.375 4.5625 -11 2 C-7.75218562 -1.89737726 -4.62190328 -1.11268042 0 0 Z " fill="#1E1D1D" transform="translate(122,239)"/>
<path d="M0 0 C2.375 1.875 2.375 1.875 4 4 C4 4.66 4 5.32 4 6 C3.01 6 2.02 6 1 6 C0.34 5.01 -0.32 4.02 -1 3 C-2.65 3.33 -4.3 3.66 -6 4 C-6 4.99 -6 5.98 -6 7 C-3.03 7.99 -0.06 8.98 3 10 C4.31343284 15.37313433 4.31343284 15.37313433 3.0625 17.875 C-0.18834661 19.64818906 -3.38409592 19.57251815 -7 19 C-9 17.625 -9 17.625 -10 16 C-10 15.34 -10 14.68 -10 14 C-9.195625 14.495 -9.195625 14.495 -8.375 15 C-5.4608939 16.22699204 -3.13132292 16.14233286 0 16 C0.33 14.68 0.66 13.36 1 12 C-0.8871875 11.566875 -0.8871875 11.566875 -2.8125 11.125 C-5.8539399 10.42696461 -7.30669878 9.79553415 -10 8 C-9.6875 5.125 -9.6875 5.125 -9 2 C-5.50875983 -0.32749345 -4.10777749 -0.50299316 0 0 Z " fill="#2B2A2A" transform="translate(327,238)"/>
<path d="M0 0 C4.39594806 2.19797403 5.27619347 3.53370459 7.75 7.625 C8.36359375 8.62789062 8.9771875 9.63078125 9.609375 10.6640625 C10.06828125 11.43492187 10.5271875 12.20578125 11 13 C11.33 9.04 11.66 5.08 12 1 C12.66 1 13.32 1 14 1 C14 6.94 14 12.88 14 19 C9.91711311 17.6390377 9.11314183 15.52046678 6.8125 11.9375 C6.09707031 10.83277344 5.38164062 9.72804687 4.64453125 8.58984375 C4.10183594 7.73519531 3.55914062 6.88054687 3 6 C2.67 10.29 2.34 14.58 2 19 C1.34 19 0.68 19 0 19 C0 12.73 0 6.46 0 0 Z " fill="#0A0A0A" transform="translate(226,238)"/>
<path d="M0 0 C0.99 0 1.98 0 3 0 C5.04296875 2.625 5.04296875 2.625 7.1875 6 C7.55552734 6.57234375 7.92355469 7.1446875 8.30273438 7.734375 C9.21125071 9.15024462 10.10686477 10.57437797 11 12 C11.33 8.04 11.66 4.08 12 0 C12.66 0 13.32 0 14 0 C14 5.94 14 11.88 14 18 C8.09633798 15.04816899 6.39248044 10.61064074 3 5 C2.67 9.29 2.34 13.58 2 18 C1.34 18 0.68 18 0 18 C0 12.06 0 6.12 0 0 Z " fill="#040303" transform="translate(285,239)"/>
<path d="M0 0 C0.99 0 1.98 0 3 0 C3 6.27 3 12.54 3 19 C2.01 19 1.02 19 0 19 C0 16.03 0 13.06 0 10 C-3.3 10 -6.6 10 -10 10 C-10 12.97 -10 15.94 -10 19 C-10.66 19 -11.32 19 -12 19 C-12 13.06 -12 7.12 -12 1 C-11.34 1 -10.68 1 -10 1 C-10 3.64 -10 6.28 -10 9 C-6.7 9 -3.4 9 0 9 C0 6.03 0 3.06 0 0 Z " fill="#1F1F1E" transform="translate(373,238)"/>
<path d="M0 0 C1.62463842 -0.05395478 3.24978541 -0.09277195 4.875 -0.125 C5.77992187 -0.14820313 6.68484375 -0.17140625 7.6171875 -0.1953125 C10 0 10 0 12 2 C11.71269945 4.33944736 11.38063221 6.6739143 11 9 C11.33 9.33 11.66 9.66 12 10 C12.25 12.9375 12.25 12.9375 12 16 C8.79619983 18.13586678 7.98060033 18.23132175 4.3125 18.125 C3.10013672 18.09792969 3.10013672 18.09792969 1.86328125 18.0703125 C1.24839844 18.04710937 0.63351563 18.02390625 0 18 C0 15.36 0 12.72 0 10 C0.33 10 0.66 10 1 10 C1 11.98 1 13.96 1 16 C5.455 15.505 5.455 15.505 10 15 C9.649375 14.319375 9.29875 13.63875 8.9375 12.9375 C7.77379397 9.2912211 8.27154898 6.71510022 9 3 C6.36 2.34 3.72 1.68 1 1 C1 3.31 1 5.62 1 8 C0.67 8 0.34 8 0 8 C0 5.36 0 2.72 0 0 Z " fill="#0E0D0D" transform="translate(80,239)"/>
<path d="M0 0 C0.99 0.33 1.98 0.66 3 1 C4.39044898 4.87862084 5 7.86462003 5 12 C5.66 12 6.32 12 7 12 C7.66 9.03 8.32 6.06 9 3 C9.99 3.33 10.98 3.66 12 4 C11.54625 5.19625 11.0925 6.3925 10.625 7.625 C9.33582632 11.05872327 8.13380949 14.51135543 7 18 C6.34 18 5.68 18 5 18 C2.67344909 12.01589463 0.57065878 6.41991126 0 0 Z " fill="#2C2A2A" transform="translate(131,239)"/>
<path d="M0 0 C1.125 3.75 1.125 3.75 0 6 C2.31 6 4.62 6 7 6 C7.33 5.34 7.66 4.68 8 4 C11 9.625 11 9.625 11 13 C10.34 13 9.68 13 9 13 C8.34 11.35 7.68 9.7 7 8 C4.36 8 1.72 8 -1 8 C-1.33 9.65 -1.66 11.3 -2 13 C-2.66 13 -3.32 13 -4 13 C-3.40895235 8.15340923 -2.02055843 4.39251833 0 0 Z " fill="#131212" transform="translate(342,244)"/>
<path d="M0 0 C1.125 3.75 1.125 3.75 0 6 C2.31 6 4.62 6 7 6 C7.33 5.34 7.66 4.68 8 4 C11 9.625 11 9.625 11 13 C10.34 13 9.68 13 9 13 C8.34 11.35 7.68 9.7 7 8 C4.36 8 1.72 8 -1 8 C-1.33 9.65 -1.66 11.3 -2 13 C-2.66 13 -3.32 13 -4 13 C-3.40895235 8.15340923 -2.02055843 4.39251833 0 0 Z " fill="#131212" transform="translate(266,244)"/>
<path d="M0 0 C1.125 3.75 1.125 3.75 0 6 C2.31 6 4.62 6 7 6 C7.33 5.34 7.66 4.68 8 4 C11 9.625 11 9.625 11 13 C10.34 13 9.68 13 9 13 C8.34 11.35 7.68 9.7 7 8 C4.36 8 1.72 8 -1 8 C-1.33 9.65 -1.66 11.3 -2 13 C-2.66 13 -3.32 13 -4 13 C-3.40895235 8.15340923 -2.02055843 4.39251833 0 0 Z " fill="#131212" transform="translate(207,244)"/>
<path d="M0 0 C1.125 3.75 1.125 3.75 0 6 C2.31 6 4.62 6 7 6 C7.33 5.34 7.66 4.68 8 4 C11 9.625 11 9.625 11 13 C10.34 13 9.68 13 9 13 C8.34 11.35 7.68 9.7 7 8 C4.36 8 1.72 8 -1 8 C-1.33 9.65 -1.66 11.3 -2 13 C-2.66 13 -3.32 13 -4 13 C-3.40895235 8.15340923 -2.02055843 4.39251833 0 0 Z " fill="#131212" transform="translate(164,244)"/>
<path d="M0 0 C0.99 0 1.98 0 3 0 C3 6.27 3 12.54 3 19 C2.01 19 1.02 19 0 19 C0 12.73 0 6.46 0 0 Z " fill="#3D3B3B" transform="translate(100,238)"/>
<path d="M0 0 C2.31 0.33 4.62 0.66 7 1 C8.31343284 6.37313433 8.31343284 6.37313433 7.0625 8.875 C3.81165339 10.64818906 0.61590408 10.57251815 -3 10 C-5 8.625 -5 8.625 -6 7 C-6 6.34 -6 5.68 -6 5 C-5.195625 5.495 -5.195625 5.495 -4.375 6 C-1.4608939 7.22699204 0.86867708 7.14233286 4 7 C4.33 5.68 4.66 4.36 5 3 C2.525 2.01 2.525 2.01 0 1 C0 0.67 0 0.34 0 0 Z " fill="#212020" transform="translate(323,247)"/>
<path d="M0 0 C0.66 0 1.32 0 2 0 C1.91253716 1.43861294 1.80434652 2.87597508 1.6875 4.3125 C1.62949219 5.11300781 1.57148438 5.91351563 1.51171875 6.73828125 C0.90078513 9.43851458 0.23501528 10.3889478 -2 12 C-5.5659008 12.73331025 -8.92956104 12.70247557 -12 10.6875 C-13 9 -13 9 -13 6 C-10 7 -10 7 -9 9 C-6.08365871 9.2502157 -6.08365871 9.2502157 -3 9 C-0.87491756 5.81237635 -0.4979837 3.73487777 0 0 Z " fill="#121111" transform="translate(397,245)"/>
<path d="M0 0 C2.64 0 5.28 0 8 0 C8.042721 1.66611905 8.04063832 3.33382885 8 5 C7 6 7 6 3.4375 6.0625 C2.303125 6.041875 1.16875 6.02125 0 6 C0 4.02 0 2.04 0 0 Z " fill="#F5EEEC" transform="translate(185,241)"/>
<path d="M0 0 C2.31 0 4.62 0 7 0 C7.33 1.65 7.66 3.3 8 5 C5.29120665 6.35439668 2.99066732 6.06501451 0 6 C0 4.02 0 2.04 0 0 Z " fill="#F5EDEB" transform="translate(82,249)"/>
<path d="M0 0 C0.66 0 1.32 0 2 0 C2.02684312 2.81256281 2.04676188 5.62487241 2.0625 8.4375 C2.07087891 9.23994141 2.07925781 10.04238281 2.08789062 10.86914062 C2.0965143 12.91295221 2.0522815 14.95683902 2 17 C1 18 1 18 -1.5625 18.0625 C-2.366875 18.041875 -3.17125 18.02125 -4 18 C-4 17.34 -4 16.68 -4 16 C-3.01 15.67 -2.02 15.34 -1 15 C-0.67 10.05 -0.34 5.1 0 0 Z " fill="#0F0F0E" transform="translate(252,239)"/>
<path d="M0 0 C0.33 0 0.66 0 1 0 C1.13277344 0.63808594 1.26554687 1.27617187 1.40234375 1.93359375 C1.57894531 2.75988281 1.75554687 3.58617187 1.9375 4.4375 C2.19853516 5.67306641 2.19853516 5.67306641 2.46484375 6.93359375 C2.80752994 8.97661204 2.80752994 8.97661204 4 10 C6.67058851 10.14115161 9.32432238 10.04247107 12 10 C12 10.66 12 11.32 12 12 C8.95016004 13.52491998 6.3576631 13.23562548 3 13 C0.81400531 11.39999456 0.10250258 10.41733194 -0.546875 7.7734375 C-0.61390625 6.98195312 -0.6809375 6.19046875 -0.75 5.375 C-0.82734375 4.57835937 -0.9046875 3.78171875 -0.984375 2.9609375 C-0.98953125 2.31382812 -0.9946875 1.66671875 -1 1 C-0.67 0.67 -0.34 0.34 0 0 Z " fill="#0D0D0D" transform="translate(407,244)"/>
<path d="M0 0 C0.99 0 1.98 0 3 0 C3.33 0.99 3.66 1.98 4 3 C3.67 3.33 3.34 3.66 3 4 C2.76472227 6.34987262 2.58613583 8.70556039 2.4375 11.0625 C2.35371094 12.35285156 2.26992188 13.64320313 2.18359375 14.97265625 C2.12300781 15.97167969 2.06242187 16.97070312 2 18 C1.34 18 0.68 18 0 18 C0 12.06 0 6.12 0 0 Z " fill="#030303" transform="translate(285,239)"/>
<path d="M0 0 C0.66 0 1.32 0 2 0 C2 5.94 2 11.88 2 18 C1.01 17.67 0.02 17.34 -1 17 C-0.67 11.39 -0.34 5.78 0 0 Z " fill="#020101" transform="translate(238,239)"/>
<path d="M0 0 C2.31 0 4.62 0 7 0 C7.5625 1.9375 7.5625 1.9375 8 4 C7 5 7 5 3.4375 5.0625 C2.303125 5.041875 1.16875 5.02125 0 5 C0 3.35 0 1.7 0 0 Z " fill="#F1E9E7" transform="translate(82,241)"/>
<path d="M0 0 C0.99 0.33 1.98 0.66 3 1 C2.54625 2.19625 2.0925 3.3925 1.625 4.625 C0.33582632 8.05872327 -0.86619051 11.51135543 -2 15 C-2.66 15 -3.32 15 -4 15 C-4.33 13.68 -4.66 12.36 -5 11 C-4.01 11 -3.02 11 -2 11 C-1.93941406 10.37351563 -1.87882813 9.74703125 -1.81640625 9.1015625 C-1.73261719 8.28429687 -1.64882812 7.46703125 -1.5625 6.625 C-1.48128906 5.81289062 -1.40007812 5.00078125 -1.31640625 4.1640625 C-1 2 -1 2 0 0 Z " fill="#111010" transform="translate(140,242)"/>
<path d="M0 0 C0.99 0 1.98 0 3 0 C3.39036513 1.60049704 3.76178619 3.20562371 4.125 4.8125 C4.33382812 5.70582031 4.54265625 6.59914062 4.7578125 7.51953125 C5 10 5 10 3 13 C1 7.375 1 7.375 1 4 C0.34 3.67 -0.32 3.34 -1 3 C-0.67 2.01 -0.34 1.02 0 0 Z " fill="#3C3A39" transform="translate(141,239)"/>
<path d="M0 0 C2.5654594 2.5654594 2.54046087 4.47686668 3 8 C1.02 8 -0.96 8 -3 8 C-1.125 1.125 -1.125 1.125 0 0 Z " fill="#DDD6D4" transform="translate(345,242)"/>
<path d="M0 0 C2.5654594 2.5654594 2.54046087 4.47686668 3 8 C1.02 8 -0.96 8 -3 8 C-1.125 1.125 -1.125 1.125 0 0 Z " fill="#DDD6D4" transform="translate(269,242)"/>
<path d="M0 0 C2.5654594 2.5654594 2.54046087 4.47686668 3 8 C1.02 8 -0.96 8 -3 8 C-1.125 1.125 -1.125 1.125 0 0 Z " fill="#DDD6D4" transform="translate(210,242)"/>
<path d="M0 0 C2.5654594 2.5654594 2.54046087 4.47686668 3 8 C1.02 8 -0.96 8 -3 8 C-1.125 1.125 -1.125 1.125 0 0 Z " fill="#DDD6D4" transform="translate(167,242)"/>
<path d="M0 0 C6.75 0.75 6.75 0.75 9 3 C9 3.99 9 4.98 9 6 C8.01 6 7.02 6 6 6 C6 5.01 6 4.02 6 3 C4.02 3 2.04 3 0 3 C0 2.01 0 1.02 0 0 Z " fill="#434140" transform="translate(115,238)"/>
<path d="M0 0 C0.66 0 1.32 0 2 0 C1.44687265 4.02992782 0.8441938 8.02022924 0 12 C-0.99 11.67 -1.98 11.34 -3 11 C-2.01 7.37 -1.02 3.74 0 0 Z " fill="#302F2E" transform="translate(151,239)"/>
<path d="M0 0 C2.31 0.33 4.62 0.66 7 1 C7 1.33 7 1.66 7 2 C5.02 2.66 3.04 3.32 1 4 C0.67 6.64 0.34 9.28 0 12 C-0.33 12 -0.66 12 -1 12 C-1.144375 11.05125 -1.28875 10.1025 -1.4375 9.125 C-1.82935399 6.1065506 -1.82935399 6.1065506 -3 4 C-2.01 2.68 -1.02 1.36 0 0 Z " fill="#484645" transform="translate(409,239)"/>
<path d="M0 0 C0.66 0 1.32 0 2 0 C3.5078125 2.1875 3.5078125 2.1875 5.125 5 C5.66382813 5.928125 6.20265625 6.85625 6.7578125 7.8125 C7.37269531 8.8953125 7.37269531 8.8953125 8 10 C7.01 10 6.02 10 5 10 C3.61328125 8.57421875 3.61328125 8.57421875 2.3125 6.6875 C1.87550781 6.07261719 1.43851563 5.45773438 0.98828125 4.82421875 C0 3 0 3 0 0 Z " fill="#222121" transform="translate(230,243)"/>
<path d="M0 0 C0.66 0 1.32 0 2 0 C3.5078125 2.1875 3.5078125 2.1875 5.125 5 C5.66382813 5.928125 6.20265625 6.85625 6.7578125 7.8125 C7.37269531 8.8953125 7.37269531 8.8953125 8 10 C7.01 10 6.02 10 5 10 C3.61328125 8.3203125 3.61328125 8.3203125 2.3125 6.125 C1.87550781 5.40570313 1.43851562 4.68640625 0.98828125 3.9453125 C0 2 0 2 0 0 Z " fill="#1B1A1A" transform="translate(288,242)"/>
<path d="M0 0 C1.9375 0.75 1.9375 0.75 4 2 C4.75 4.125 4.75 4.125 5 6 C4.34 6 3.68 6 3 6 C3 7.98 3 9.96 3 12 C2.67 12 2.34 12 2 12 C1.8046875 10.01432292 1.609375 8.02864583 1.4140625 6.04296875 C1.07334609 3.70011858 1.07334609 3.70011858 -1 1 C-0.67 0.67 -0.34 0.34 0 0 Z " fill="#3C3A3A" transform="translate(394,239)"/>
<path d="M0 0 C0.99 0 1.98 0 3 0 C3.33 0.66 3.66 1.32 4 2 C6.3140622 2.73075648 8.64828869 3.40138258 11 4 C11 4.33 11 4.66 11 5 C4.64948454 5.36637589 4.64948454 5.36637589 1.5625 3.625 C0 2 0 2 0 0 Z " fill="#212020" transform="translate(110,252)"/>
<path d="M0 0 C0 1.65 0 3.3 0 5 C-0.99 4.67 -1.98 4.34 -3 4 C-3 2.68 -3 1.36 -3 0 C-5.64 0 -8.28 0 -11 0 C-11 -0.33 -11 -0.66 -11 -1 C-3.57142857 -2.42857143 -3.57142857 -2.42857143 0 0 Z " fill="#4B4848" transform="translate(196,241)"/>
<path d="M0 0 C0.99 0.33 1.98 0.66 3 1 C3 2.98 3 4.96 3 7 C1.68 7.33 0.36 7.66 -1 8 C-0.835 7.236875 -0.67 6.47375 -0.5 5.6875 C0.09145396 2.96403764 0.09145396 2.96403764 0 0 Z " fill="#101010" transform="translate(121,248)"/>
<path d="M0 0 C2.5654594 2.5654594 2.54046087 4.47686668 3 8 C2.34 8 1.68 8 1 8 C-1 5 -1 5 -0.625 2.3125 C-0.41875 1.549375 -0.2125 0.78625 0 0 Z " fill="#2A2929" transform="translate(350,249)"/>
<path d="M0 0 C2.5654594 2.5654594 2.54046087 4.47686668 3 8 C2.34 8 1.68 8 1 8 C-1 5 -1 5 -0.625 2.3125 C-0.41875 1.549375 -0.2125 0.78625 0 0 Z " fill="#2A2929" transform="translate(274,249)"/>
<path d="M0 0 C2.5654594 2.5654594 2.54046087 4.47686668 3 8 C2.34 8 1.68 8 1 8 C-1 5 -1 5 -0.625 2.3125 C-0.41875 1.549375 -0.2125 0.78625 0 0 Z " fill="#2A2929" transform="translate(215,249)"/>
<path d="M0 0 C1.99097846 2.98646769 2.94124926 5.59687262 4 9 C3.01 9 2.02 9 1 9 C-1.125 2.25 -1.125 2.25 0 0 Z " fill="#212020" transform="translate(192,248)"/>
<path d="M0 0 C2.5654594 2.5654594 2.54046087 4.47686668 3 8 C2.34 8 1.68 8 1 8 C-1 5 -1 5 -0.625 2.3125 C-0.41875 1.549375 -0.2125 0.78625 0 0 Z " fill="#2A2929" transform="translate(172,249)"/>
<path d="M0 0 C2.31 0.33 4.62 0.66 7 1 C7 2.65 7 4.3 7 6 C5.83054208 5.19152271 4.66449539 4.37810888 3.5 3.5625 C2.8503125 3.11003906 2.200625 2.65757812 1.53125 2.19140625 C1.0259375 1.79824219 0.520625 1.40507812 0 1 C0 0.67 0 0.34 0 0 Z " fill="#131313" transform="translate(323,247)"/>
<path d="M0 0 C0.33 0.99 0.66 1.98 1 3 C3.31 3.33 5.62 3.66 8 4 C7.67 4.99 7.34 5.98 7 7 C5.02 6.34 3.04 5.68 1 5 C0.67 3.35 0.34 1.7 0 0 Z " fill="#363534" transform="translate(317,242)"/>
</svg>
